<?xml version="1.0" encoding="UTF-8"?>
<svg version="1.1" xmlns="http://www.w3.org/2000/svg" width="1024" height="1024">
<path d="M0 0 C337.92 0 675.84 0 1024 0 C1024 337.92 1024 675.84 1024 1024 C686.08 1024 348.16 1024 0 1024 C0 686.08 0 348.16 0 0 Z " fill="#FAFCFE" transform="translate(0,0)"/>
<path d="M0 0 C5.74570307 0.15063641 10.02424872 1.27127287 14.33984375 5.21875 C19.96498598 11.30853491 24.93642968 17.96824488 29.92578125 24.58105469 C31.97726779 27.29466962 34.05071344 29.9912962 36.125 32.6875 C36.53484131 33.22093018 36.94468262 33.75436035 37.36694336 34.30395508 C40.90547177 38.90190664 44.49069014 43.46234792 48.08178711 48.01928711 C51.1438704 51.90928096 54.17595416 55.8207805 57.1875 59.75 C61.0221477 64.75181293 64.90051494 69.71720092 68.80078125 74.66796875 C72.61571141 79.51367392 76.40436468 84.3794442 80.1875 89.25 C84.76930021 95.14804671 89.36400224 101.03528845 93.98852539 106.89990234 C96.62331128 110.24533925 99.23819163 113.60527464 101.83984375 116.9765625 C102.46761719 117.78867187 103.09539062 118.60078125 103.7421875 119.4375 C104.96982785 121.02681033 106.19520054 122.61787565 107.41796875 124.2109375 C111.45377916 129.55217292 111.45377916 129.55217292 116.1875 134.25 C120.29527749 134.75299316 121.69625983 134.57749345 125.1875 132.25 C126.11349758 128.29346489 125.83475594 126.3611227 123.78125 122.8359375 C121.66756068 119.89929537 119.45176546 117.0722323 117.1875 114.25 C116.35639169 113.18881457 115.52699928 112.12628331 114.69921875 111.0625 C112.88725109 108.73940334 111.06623126 106.42382248 109.23828125 104.11328125 C100.91839406 93.59002833 92.68069344 83.00465358 84.67626953 72.23901367 C82.04188033 68.70045973 79.37452873 65.19341933 76.65625 61.71875 C76.067229 60.96215088 75.47820801 60.20555176 74.87133789 59.42602539 C73.74137396 57.97759267 72.60551187 56.53373384 71.46264648 55.09545898 C66.25392472 48.40016102 63.51164204 42.63179987 63.7734375 33.96875 C64.6764776 28.03935464 67.68348711 24.42313006 72.3125 20.8125 C77.88231835 17.78542481 82.96293185 17.63690984 89.1875 18.25 C94.68765908 19.95088953 98.33870518 23.0163257 102.1875 27.25 C103.43602673 28.45985555 104.68618778 29.66802561 105.9375 30.875 C110.23341653 35.17891637 114.03055313 39.80614493 117.82177734 44.5546875 C119.40352998 46.5181645 121.0074278 48.4624384 122.61328125 50.40625 C123.20407471 51.12425781 123.79486816 51.84226563 124.40356445 52.58203125 C125.5776413 54.00885517 126.75449209 55.43340178 127.93432617 56.85546875 C128.47162354 57.51160156 129.0089209 58.16773438 129.5625 58.84375 C130.04460937 59.42833984 130.52671875 60.01292969 131.0234375 60.61523438 C132.1875 62.25 132.1875 62.25 133.1875 65.25 C133.8475 65.25 134.5075 65.25 135.1875 65.25 C136.45703125 66.65625 136.45703125 66.65625 138 68.75 C141.3828668 73.23001278 144.88367544 77.59324419 148.4375 81.9375 C152.6200591 87.06097009 156.75000471 92.21838322 160.8125 97.4375 C164.77600143 102.52370691 168.87740678 107.46634576 173.06958008 112.36499023 C176.78796176 116.72953203 180.33255256 121.21238696 183.8515625 125.73828125 C188.12861672 131.22013947 192.55442605 136.57298793 196.9909668 141.92602539 C200.67033461 146.37644275 204.27246968 150.87571165 207.8125 155.4375 C211.47866381 160.15728274 215.2718871 164.73521864 219.1875 169.25 C225.09423741 176.0716784 230.70747833 183.08217816 236.1875 190.25 C236.66638672 190.87052246 237.14527344 191.49104492 237.63867188 192.13037109 C254.94569242 214.63754223 261.13181296 238.35825821 257.90332031 266.74902344 C254.4767446 286.67460715 242.17597503 299.45879112 228.3671875 313.1328125 C227.01284103 314.48147903 227.01284103 314.48147903 225.63113403 315.85739136 C222.77736604 318.69906411 219.92046526 321.5375505 217.0625 324.375 C213.28596257 328.12450082 209.51314797 331.87770048 205.7421875 335.6328125 C204.88785126 336.4788504 204.03351501 337.32488831 203.15328979 338.19656372 C198.81298743 342.51919433 194.62913915 346.90301522 190.66131592 351.57145691 C188.47218074 354.06468397 186.04374915 356.23932294 183.5625 358.4375 C179.68559034 361.89935589 175.97536247 365.45500192 172.37060547 369.19970703 C154.52243791 387.65016286 131.06823225 398.69354893 105.23046875 399.48828125 C76.77368104 399.95151679 57.08295973 393.29897522 33.50292969 377.77441406 C30.65422377 375.89890586 27.78983721 374.04839926 24.92431641 372.19873047 C23.55054349 371.31135892 22.17783176 370.4223425 20.80615234 369.53173828 C15.01965069 365.77497978 9.19992785 362.07182268 3.375 358.375 C-3.65092922 353.91409256 -10.65379326 349.42094987 -17.625 344.875 C-34.930755 333.59225004 -52.3710879 322.51737517 -69.8046875 311.43359375 C-70.61647461 310.91643799 -71.42826172 310.39928223 -72.26464844 309.86645508 C-74.07652686 308.71692968 -75.8927557 307.57424894 -77.71191406 306.4362793 C-78.67581055 305.83082275 -79.63970703 305.22536621 -80.6328125 304.6015625 C-81.50437988 304.05709473 -82.37594727 303.51262695 -83.27392578 302.95166016 C-89.59191664 298.71657684 -94.92426794 294.42655221 -97.8125 287.25 C-98.68819501 280.95959083 -99.0067034 274.33030292 -95.75 268.6875 C-91.40043611 262.96567933 -85.93979149 259.39956314 -78.8125 258.25 C-52.53035259 256.95257382 -21.92733374 282.13747287 -1.33203125 296.6953125 C-0.27371094 297.43523437 0.78460937 298.17515625 1.875 298.9375 C3.21111328 299.90236328 3.21111328 299.90236328 4.57421875 300.88671875 C7.70408565 302.51948937 9.70218375 302.62705224 13.1875 302.25 C15.70756844 300.81338689 15.70756844 300.81338689 17.1875 298.25 C17.6306523 295.00675262 17.88938561 292.46214254 16.20117188 289.54663086 C14.79114105 287.78070784 13.30537486 286.13929797 11.75 284.5 C10.63563045 283.26660741 9.52235806 282.03222269 8.41015625 280.796875 C7.85859863 280.19423828 7.30704102 279.59160156 6.73876953 278.97070312 C4.63217201 276.63401768 2.65740925 274.20241004 0.6875 271.75 C-2.74458324 267.52207137 -6.2580984 263.37479923 -9.8125 259.25 C-14.91217016 253.32886339 -19.89059014 247.32005882 -24.8125 241.25 C-26.3948448 239.31169258 -27.97817404 237.3741884 -29.5625 235.4375 C-30.29855469 234.53515625 -31.03460937 233.6328125 -31.79296875 232.703125 C-33.46277267 230.67481386 -35.16024825 228.67757808 -36.875 226.6875 C-38.8125 224.25 -38.8125 224.25 -38.8125 222.25 C-39.4725 222.25 -40.1325 222.25 -40.8125 222.25 C-42.1171875 220.7734375 -42.1171875 220.7734375 -43.6875 218.625 C-46.83042538 214.45834167 -50.14039124 210.49822559 -53.5625 206.5625 C-57.59426395 201.90978783 -61.48516774 197.18350142 -65.25 192.3125 C-69.68116163 186.58696849 -74.34071828 181.10096796 -79.1081543 175.65356445 C-84.53443903 169.44896904 -89.72925874 163.06953768 -94.90625 156.65625 C-98.25220894 152.53441652 -101.61202709 148.45027948 -105.1640625 144.50390625 C-106.03756348 143.52502441 -106.03756348 143.52502441 -106.92871094 142.52636719 C-108.07064385 141.25128274 -109.22187352 139.98444136 -110.38378906 138.72753906 C-116.26681556 132.13726347 -118.44955911 125.76171821 -118.15625 116.92578125 C-117.28367104 110.13354731 -113.91459817 105.59171365 -108.59765625 101.4375 C-103.71728929 98.19104145 -98.55570073 97.57815388 -92.8125 98.25 C-78.11381833 101.39563226 -67.09736175 118.31223842 -58.4284668 129.61743164 C-56.70429318 131.86476714 -55.02515213 134.04147259 -53 136.02734375 C-51.8125 137.25 -51.8125 137.25 -51.8125 139.25 C-51.1525 139.25 -50.4925 139.25 -49.8125 139.25 C-48.47265625 140.76171875 -48.47265625 140.76171875 -46.875 142.9375 C-43.94672435 146.81174124 -40.90486671 150.55944422 -37.75 154.25 C-33.40062388 159.34958275 -29.12334501 164.5034937 -24.875 169.6875 C-19.99016929 175.64347191 -15.03409009 181.52858974 -10.00244141 187.36083984 C-6.29257434 191.66806893 -2.6829372 196.04928508 0.90234375 200.4609375 C4.421376 204.75596148 8.00386382 208.9950744 11.6171875 213.2109375 C13.18095371 215.05988904 14.7157986 216.93452698 16.1953125 218.8515625 C19.60801234 223.25878336 19.60801234 223.25878336 24.8125 224.9375 C29.02571245 224.07925302 31.82089212 223.00706727 34.5 219.5625 C35.53973702 216.06520276 35.82529292 212.82612322 35.1875 209.25 C33.62519215 206.50929488 31.56572485 204.37903352 29.375 202.125 C28.1741829 200.82037203 26.97632185 199.51301779 25.78125 198.203125 C25.17667969 197.54763672 24.57210937 196.89214844 23.94921875 196.21679688 C21.26709147 193.22244857 18.81959378 190.06390356 16.375 186.875 C13.42496823 183.05743532 10.43557147 179.3209021 7.1875 175.75 C3.91596455 172.1526409 0.91413631 168.40271215 -2.0625 164.5625 C-6.39812816 158.97176171 -10.90842365 153.56950357 -15.53979492 148.22216797 C-19.04972637 144.16297026 -22.42754615 140.02013907 -25.75390625 135.80859375 C-28.2206162 132.7427588 -30.76122414 129.74550413 -33.3125 126.75 C-37.2033124 122.18079634 -40.99179113 117.54827185 -44.71875 112.84375 C-47.66397646 109.19518588 -50.70814386 105.63370671 -53.74829102 102.06420898 C-57.13532517 98.07743024 -60.40807399 94.01337741 -63.6484375 89.90625 C-65.30872999 87.86834586 -66.99365272 85.88098707 -68.7265625 83.90625 C-87.57708347 62.4237806 -87.57708347 62.4237806 -87.24609375 48.1328125 C-86.34193147 42.12135519 -83.37229944 37.49171785 -78.83203125 33.515625 C-72.84405948 29.63271434 -66.7652627 29.18244982 -59.8125 30.25 C-50.74022258 32.6066126 -45.62063557 39.52169641 -40.11328125 46.58642578 C-38.20204231 49.03071672 -36.22360833 51.41845751 -34.25 53.8125 C-33.52683594 54.70066406 -32.80367187 55.58882812 -32.05859375 56.50390625 C-28.8257289 60.45643493 -25.54730928 64.37048982 -22.2734375 68.2890625 C-19.97614728 71.05310375 -17.70357514 73.83535516 -15.4375 76.625 C-12.00723121 80.83432632 -8.49011439 84.95696716 -4.9375 89.0625 C-0.95022278 93.6749359 2.89487457 98.36500012 6.625 103.1875 C11.05764859 108.91448197 15.71785124 114.4026272 20.48754883 119.85083008 C24.40274452 124.32642354 28.19886493 128.88238275 31.94140625 133.50390625 C34.50640394 136.63989473 37.1240746 139.72755315 39.75 142.8125 C42.95498518 146.58080561 46.11438084 150.37246519 49.1875 154.25 C52.37285368 158.26459864 55.63374303 162.20781335 58.9375 166.125 C59.39769531 166.67285156 59.85789062 167.22070312 60.33203125 167.78515625 C64.78614135 173.70680305 64.78614135 173.70680305 71.0625 176.75 C74.9451148 176.12878163 77.12471394 174.67173781 80.1875 172.25 C81.68340709 169.25818583 81.61493011 167.6083794 81.1875 164.25 C77.67068801 157.97221902 73.01872223 152.3154854 68.5625 146.6875 C63.97214825 140.84136046 59.4381365 134.96255896 55 129 C50.45489667 122.90380182 45.80802703 116.89953772 41.09375 110.93359375 C31.4921588 98.78240876 22.06195382 86.49854464 12.66748047 74.18701172 C10.4513103 71.28646832 8.22646491 68.39264433 6 65.5 C5.20207031 64.46230469 4.40414062 63.42460937 3.58203125 62.35546875 C1.95880036 60.25029981 0.33194001 58.14853822 -1.30078125 56.05078125 C-5.7187999 50.36458789 -10.07008302 44.63113567 -14.3125 38.8125 C-14.73402344 38.24539307 -15.15554688 37.67828613 -15.58984375 37.09399414 C-20.59515719 30.1511731 -21.7428526 23.63510103 -20.8125 15.25 C-18.99974879 8.5611775 -14.69578163 4.64738799 -8.8125 1.25 C-5.78707103 0.19109986 -3.22391498 0.21140426 0 0 Z " fill="#597DFE" transform="translate(634.8125,191.75)"/>
<path d="M0 0 C5.8462549 3.7373319 8.2702764 8.74291123 10.11108398 15.24194336 C11.1684498 20.26884205 11.1427384 25.22535796 11.0859375 30.34375 C11.09753906 31.37371094 11.10914063 32.40367187 11.12109375 33.46484375 C11.0662517 48.18079383 6.52620005 60.9701943 1.11914062 74.4765625 C-2.9182092 84.58364373 -2.9182092 84.58364373 -1.0390625 94.96875 C1.21081105 97.70073931 3.22504935 98.91174908 6.76306129 99.34510702 C7.49841991 99.34575912 8.23377853 99.34641123 8.99142075 99.34708309 C10.27088943 99.35550619 10.27088943 99.35550619 11.57620597 99.36409944 C12.50848903 99.36011835 13.44077209 99.35613726 14.40130615 99.35203552 C15.3954661 99.35571123 16.38962605 99.35938693 17.41391206 99.36317402 C20.75483428 99.37317713 24.09559081 99.36899856 27.43652344 99.36499023 C29.82804543 99.369376 32.21956589 99.37467761 34.61108398 99.38082886 C40.43926192 99.39384504 46.26740066 99.39803335 52.09559175 99.39906888 C58.88528695 99.40108884 65.67492881 99.41686875 72.46459964 99.43420542 C84.58348684 99.46505208 96.70237594 99.48921413 108.82128906 99.50708008 C109.54663858 99.50815276 110.27198809 99.50922544 111.0193179 99.51033062 C119.10809177 99.52214549 127.19686641 99.53235121 135.28564453 99.54077148 C138.2167969 99.54384528 141.14794924 99.5469341 144.07910156 99.55004883 C145.16398076 99.55119684 145.16398076 99.55119684 146.27077672 99.55236804 C158.33950585 99.56545924 170.40818081 99.5901132 182.47686982 99.62379223 C189.25111809 99.64224472 196.02527719 99.65466259 202.79955292 99.65249443 C209.17220433 99.65074415 215.54468541 99.66250553 221.91729736 99.68461227 C224.25536696 99.69021167 226.59345528 99.69069713 228.93152618 99.68567467 C232.12543539 99.67953345 235.31877463 99.69176544 238.51263428 99.70848083 C239.43599445 99.70226902 240.35935462 99.6960572 241.31069541 99.68965715 C247.72433411 99.75074083 253.58586395 100.54784066 258.734375 104.7421875 C259.18039062 105.31195312 259.62640625 105.88171875 260.0859375 106.46875 C260.77816406 107.31566406 260.77816406 107.31566406 261.484375 108.1796875 C265.1599356 113.91543493 265.44788768 119.45186987 264.7109375 126.09375 C262.98271302 132.13736134 259.11626876 136.89737709 253.7109375 140.09375 C247.60953969 142.30262423 241.96214303 142.37482198 235.51489258 142.34912109 C233.85513649 142.35455177 233.85513649 142.35455177 232.16184998 142.36009216 C229.76815933 142.36696683 227.37445308 142.36949523 224.98075294 142.36814499 C221.19422949 142.36717825 217.40798869 142.38013794 213.62150574 142.39712524 C202.85909564 142.4433668 192.09673193 142.46810526 181.33422852 142.47460938 C174.7449111 142.47875942 168.15585628 142.50380154 161.5666256 142.53993607 C159.05518059 142.54975344 156.54369472 142.55205552 154.0322361 142.54676437 C150.52743073 142.53972316 147.02351959 142.55691423 143.51879883 142.57958984 C141.95789017 142.56733116 141.95789017 142.56733116 140.365448 142.55482483 C134.87350129 142.55385785 134.87350129 142.55385785 130.05497742 144.90322876 C128.12268223 148.05249062 128.38177685 150.47298282 128.7109375 154.09375 C129.0409375 155.08375 129.3709375 156.07375 129.7109375 157.09375 C134.05515094 159.02838665 137.8962128 159.34398239 142.61143494 159.3453064 C143.28132511 159.34827654 143.95121529 159.35124667 144.64140517 159.35430682 C146.8729231 159.36190958 149.10417491 159.35546828 151.33569336 159.34912109 C152.94096555 159.35187272 154.54623638 159.35555367 156.15150452 159.36009216 C159.60218585 159.36819029 163.05280245 159.37037613 166.50349236 159.36814499 C171.96255137 159.36530744 177.42148144 159.37968004 182.88050842 159.39712524 C198.40168327 159.44411103 213.92284897 159.46809423 229.4440918 159.47460938 C238.02110934 159.47836156 246.59798057 159.49640189 255.1749354 159.52970374 C260.59895348 159.54990299 266.02259385 159.5522955 271.44663417 159.54142356 C274.82421724 159.53881328 278.20158111 159.55283557 281.57910728 159.57150459 C283.1419571 159.57681903 284.70484746 159.57534255 286.26768112 159.56646919 C300.94578516 159.48986978 300.94578516 159.48986978 306.7109375 164.09375 C311.47017647 169.23887321 313.00080934 172.9540212 313.0234375 179.96875 C313.04019531 181.16242188 313.05695313 182.35609375 313.07421875 183.5859375 C312.51365641 188.99867927 310.53544151 192.88533493 306.3359375 196.34375 C305.77132813 196.82328125 305.20671875 197.3028125 304.625 197.796875 C300.15219421 200.82742913 296.25548829 201.34381159 290.9105072 201.3453064 C289.90377853 201.3497616 289.90377853 201.3497616 288.87671191 201.35430682 C286.6350868 201.36192574 284.39372535 201.35546165 282.15209961 201.34912109 C280.54210737 201.35187191 278.93211649 201.35555236 277.3221283 201.36009216 C273.85887251 201.3681965 270.39568126 201.37037459 266.93241692 201.36814499 C261.45745952 201.36531118 255.98263109 201.37966542 250.50770569 201.39712524 C234.94062219 201.44414881 219.37354785 201.46810124 203.80639648 201.47460938 C195.20597616 201.47835671 186.60570208 201.49635717 178.00534445 201.52970374 C172.56125858 201.54994753 167.11754907 201.55227393 161.67344081 201.54142356 C158.28944747 201.53882068 154.9056744 201.55279909 151.52173805 201.57150459 C149.95117876 201.576837 148.38057916 201.5753119 146.81003571 201.56646919 C144.66762277 201.5553782 142.52670531 201.56874134 140.38438416 201.58822632 C138.58556746 201.58986062 138.58556746 201.58986062 136.75041103 201.59152794 C133.08952438 202.1964281 131.93505173 203.17795297 129.7109375 206.09375 C128.53502776 209.77826718 128.37612412 211.37629275 130.0234375 214.90625 C131.52672338 217.18290626 131.52672338 217.18290626 133.7109375 218.09375 C135.42646029 218.19234901 137.14580326 218.22716974 138.864151 218.23178101 C140.50214661 218.23996101 140.50214661 218.23996101 142.17323303 218.24830627 C143.37684982 218.2493486 144.58046661 218.25039093 145.82055664 218.25146484 C147.76025345 218.25926432 149.69995024 218.26706784 151.63964641 218.27502275 C153.72908829 218.28274477 155.81852576 218.28812297 157.90797615 218.29298019 C162.26668958 218.30366116 166.62532539 218.3239088 170.98399353 218.34609985 C183.38016176 218.4080126 195.77632653 218.46195437 208.17260742 218.49511719 C215.0158678 218.51350489 221.85899914 218.54249712 228.70216459 218.5831219 C232.32141962 218.60413137 235.94051241 218.61964043 239.55983162 218.62192917 C243.60525305 218.62449014 247.6502259 218.65002389 251.69555664 218.67724609 C253.4797274 218.67273689 253.4797274 218.67273689 255.29994202 218.6681366 C262.7736079 218.74270942 270.01209137 219.14208314 276.05078125 223.9609375 C276.57800781 224.62351562 277.10523438 225.28609375 277.6484375 225.96875 C278.19371094 226.62617187 278.73898437 227.28359375 279.30078125 227.9609375 C283.11652842 233.73212297 283.59005491 239.33842675 282.7109375 246.09375 C280.63523344 252.36913435 277.28875629 256.01901885 271.578125 259.21875 C267.98562049 260.90226676 265.16549983 261.22164771 261.24523926 261.23178101 C260.10953995 261.23723434 258.97384064 261.24268768 257.8037262 261.24830627 C255.93345009 261.24986977 255.93345009 261.24986977 254.02539062 261.25146484 C252.01096323 261.25926362 249.99653585 261.26706647 247.98210907 261.27502275 C245.81607188 261.28273691 243.6500389 261.28811911 241.48399353 261.29298019 C236.97142647 261.30365888 232.45893441 261.32390203 227.94641113 261.34609985 C215.11453677 261.40803288 202.2826673 261.46207902 189.45068359 261.49511719 C182.36392982 261.51344337 175.27730209 261.54235077 168.19064093 261.5831219 C164.43968894 261.60421974 160.68889593 261.61965312 156.93788147 261.62192917 C152.75723836 261.62446903 148.57703878 261.64989705 144.39648438 261.67724609 C143.14963364 261.67423996 141.9027829 261.67123383 140.6181488 261.6681366 C139.48244949 261.67922958 138.34675018 261.69032257 137.17663574 261.70175171 C136.18776115 261.70506186 135.19888657 261.708372 134.18004608 261.71178246 C131.67350431 261.90332292 131.67350431 261.90332292 129.89667511 263.43856239 C128.01063662 266.07130973 128.27018526 267.94551974 128.7109375 271.09375 C130.1301483 273.89758939 130.1301483 273.89758939 132.7109375 276.09375 C135.66837052 276.58546168 138.05316625 276.75578481 141.00854492 276.70556641 C141.84323303 276.71123123 142.67792114 276.71689606 143.53790283 276.72273254 C146.29786045 276.73623792 149.0565058 276.71528045 151.81640625 276.6953125 C153.73969928 276.70081362 155.66298644 276.70893908 157.58625793 276.71957397 C162.65460546 276.74248556 167.72252227 276.73823405 172.79089355 276.72576904 C180.88502153 276.70748675 188.97889387 276.71754297 197.07296181 276.75162888 C199.89195354 276.75770589 202.7103942 276.74450217 205.52934265 276.72964478 C207.27501565 276.73259548 209.02068765 276.73625176 210.76635742 276.74072266 C211.54123001 276.73143234 212.3161026 276.72214203 213.11445618 276.71257019 C219.81591682 276.76076866 225.75749832 278.32168649 231.5234375 281.78125 C236.32489619 286.85707776 237.98436708 291.53254581 238.3359375 298.53125 C238.11525347 305.0908925 236.33556694 309.42881878 231.7109375 314.09375 C229.41456274 315.80057927 227.33557222 316.88238013 224.7109375 318.09375 C224.0509375 318.42375 223.3909375 318.75375 222.7109375 319.09375 C221.26251169 319.19019102 219.80973686 319.2247178 218.35810757 319.22797108 C217.43802613 319.23242892 216.51794469 319.23688676 215.56998199 319.24147969 C214.55241146 319.24129533 213.53484094 319.24111097 212.48643494 319.24092102 C211.41049578 319.24459771 210.33455662 319.2482744 209.22601324 319.2520625 C205.59590188 319.26313553 201.96581911 319.26694942 198.33569336 319.27075195 C195.7423239 319.27701424 193.14895534 319.28366083 190.55558777 319.29066467 C182.75056083 319.31044826 174.94553256 319.32050215 167.14048681 319.32939246 C163.4612317 319.33377624 159.78197804 319.33914319 156.10272408 319.34438133 C143.86221967 319.36140296 131.62171617 319.37589222 119.38120174 319.38313007 C116.20294633 319.38503989 113.02469093 319.38696022 109.84643555 319.38891602 C108.66156567 319.38964163 108.66156567 319.38964163 107.45275903 319.3903819 C94.6864694 319.39866354 81.92027405 319.42396456 69.15402549 319.45649669 C56.03330423 319.48965774 42.91263067 319.50758737 29.79186732 319.51077431 C22.43096333 319.51293213 15.0701964 319.5215722 7.70933342 319.54723549 C0.77280546 319.57136341 -6.16347335 319.57471163 -13.10003471 319.56447411 C-15.63590692 319.56398079 -18.17179158 319.57024028 -20.70762634 319.58403015 C-44.3896674 319.7055248 -66.33056819 317.34218853 -84.2890625 300.09375 C-98.97204877 284.87925292 -106.42187182 265.96807525 -106.45019531 244.89233398 C-106.45516022 243.99696426 -106.46012512 243.10159454 -106.46524048 242.17909241 C-106.47977943 239.23266819 -106.4866515 236.28629787 -106.4921875 233.33984375 C-106.49501488 232.3266765 -106.49784225 231.31350925 -106.50075531 230.26963997 C-106.5157172 224.90428535 -106.52496466 219.53895739 -106.52929688 214.17358398 C-106.53476634 208.66532651 -106.55877087 203.15731812 -106.58726883 197.64913845 C-106.60601062 193.38427549 -106.61110699 189.11947103 -106.61263275 184.85457039 C-106.61563557 182.82584337 -106.62358259 180.79711678 -106.63681793 178.76843071 C-106.76928145 156.89770153 -101.96320421 140.68388606 -91.7265625 121.28125 C-91.10711037 120.09822998 -90.48814158 118.91495677 -89.86962891 117.73144531 C-88.61502423 115.33247065 -87.3577999 112.93490061 -86.09814453 110.53857422 C-83.93440541 106.41841782 -81.783417 102.29171004 -79.63354492 98.16430664 C-76.70370418 92.54070636 -73.76604986 86.9211823 -70.83007812 81.30078125 C-65.56397991 71.2185585 -60.3049566 61.13280546 -55.07177734 51.03344727 C-53.88811742 48.74960932 -52.70355435 46.46623921 -51.51806641 44.18334961 C-48.64389288 38.64747614 -45.78132372 33.10631269 -42.9453125 27.55078125 C-42.41292969 26.514375 -41.88054687 25.47796875 -41.33203125 24.41015625 C-40.33906808 22.47702035 -39.35163235 20.54103003 -38.37109375 18.6015625 C-30.52474305 3.38099109 -18.4436508 -8.40470163 0 0 Z " fill="#597DFE" transform="translate(532.2890625,512.90625)"/>
<path d="M0 0 C5.44038032 3.0953888 9.18639455 8.17023541 11.0234375 14.140625 C12.4220785 21.37159896 11.46876803 27.00301082 7.4140625 33.16015625 C4.73370795 36.84439169 2.35376323 39.08956856 -1.62890625 41.2890625 C-2.61197754 41.84295654 -3.59504883 42.39685059 -4.60791016 42.9675293 C-6.17484619 43.83631714 -6.17484619 43.83631714 -7.7734375 44.72265625 C-24.66873723 54.33715753 -40.20024507 65.54056533 -55.05078125 78.0703125 C-55.60403076 78.53679199 -56.15728027 79.00327148 -56.72729492 79.48388672 C-58.24317477 80.76901418 -59.75077637 82.06388806 -61.2578125 83.359375 C-63.5859375 85.16015625 -63.5859375 85.16015625 -65.5859375 85.16015625 C-65.5859375 85.82015625 -65.5859375 86.48015625 -65.5859375 87.16015625 C-66.9140625 88.5 -66.9140625 88.5 -68.8359375 90.09765625 C-82.22053145 101.50978372 -95.27926713 113.65777087 -106.5859375 127.16015625 C-107.3903125 128.08699219 -108.1946875 129.01382813 -109.0234375 129.96875 C-116.30577413 138.38969301 -123.0090668 147.18163198 -129.5859375 156.16015625 C-130.0176123 156.7437793 -130.44928711 157.32740234 -130.89404297 157.92871094 C-146.15132864 178.57757941 -159.67443234 200.91452466 -170.5859375 224.16015625 C-171.01986816 225.07635742 -171.45379883 225.99255859 -171.90087891 226.93652344 C-183.48182259 251.57632197 -193.7102242 277.51675527 -199.5859375 304.16015625 C-199.85744629 305.37026367 -200.12895508 306.58037109 -200.40869141 307.82714844 C-203.4032453 321.22225127 -206.38095407 334.65055831 -208.4609375 348.22265625 C-208.56873535 348.91480225 -208.6765332 349.60694824 -208.78759766 350.32006836 C-210.83071254 364.82618405 -210.79071662 379.5432987 -210.7734375 394.16015625 C-210.77283325 395.10858398 -210.772229 396.05701172 -210.77160645 397.03417969 C-210.74664482 411.49487794 -210.42518048 425.79924829 -208.5859375 440.16015625 C-208.45171387 441.22508301 -208.31749023 442.29000977 -208.17919922 443.38720703 C-203.76706255 477.42857599 -196.67456755 514.635033 -180.4777832 545.25512695 C-177.91821578 550.72249751 -178.62211514 560.23856973 -180.4609375 565.8125 C-183.65290954 571.28295207 -188.5778834 575.15747155 -194.5859375 577.16015625 C-201.63160857 577.90069225 -207.24334417 577.54185602 -213.453125 574.03515625 C-219.06480424 569.10181186 -222.5674675 562.88387819 -225.3359375 556.03515625 C-225.82682861 554.84164551 -225.82682861 554.84164551 -226.32763672 553.62402344 C-238.83923971 522.41792739 -246.66932927 490.34904191 -251.5859375 457.16015625 C-251.74896362 456.06450348 -251.74896362 456.06450348 -251.9152832 454.94671631 C-257.38255458 417.7619951 -257.5165353 379.39696375 -252.8359375 342.09765625 C-252.74945953 341.4011496 -252.66298157 340.70464294 -252.57388306 339.98703003 C-247.41099441 298.68917424 -236.8021026 257.20674635 -219.51269531 219.21386719 C-218.53783367 217.05355735 -217.60207379 214.8791071 -216.671875 212.69921875 C-200.54838689 175.17597838 -177.75670842 140.40763903 -151.5859375 109.16015625 C-151.06612305 108.53592773 -150.54630859 107.91169922 -150.01074219 107.26855469 C-144.2943089 100.41958665 -138.4791919 93.82209328 -132.03515625 87.63671875 C-130.01199137 85.5909667 -128.14775947 83.51356772 -126.27734375 81.33203125 C-122.70005238 77.20671905 -118.84969845 73.48129551 -114.8359375 69.78515625 C-114.1342041 69.13450195 -113.4324707 68.48384766 -112.70947266 67.81347656 C-111.3090357 66.51666874 -109.90690378 65.22168849 -108.50292969 63.92871094 C-106.85898419 62.41206025 -105.2241787 60.8866049 -103.59375 59.35546875 C-97.63487659 53.82096615 -91.39771742 48.76854021 -84.96875 43.80078125 C-82.06873522 41.55508735 -79.26084354 39.21748268 -76.4609375 36.84765625 C-59.66314342 23.05915861 -40.87109991 11.15084508 -21.5859375 1.16015625 C-20.98007812 0.78890625 -20.37421875 0.41765625 -19.75 0.03515625 C-14.08777403 -2.25426364 -5.77783507 -1.87648722 0 0 Z " fill="#597CFE" transform="translate(407.5859375,150.83984375)"/>
<path d="M0 0 C5.29851832 2.93799295 8.51937584 7.49953378 10.41796875 13.1953125 C11.51949258 20.7365141 10.47104724 26.83749962 6.046875 33.15234375 C2.13938473 38.05310493 -2.24414765 41.06277741 -7.58984375 44.25390625 C-12.12149213 47.19415331 -16.08346044 50.70696267 -20.1484375 54.25390625 C-22.58203125 56.1953125 -22.58203125 56.1953125 -24.58203125 56.1953125 C-24.58203125 56.8553125 -24.58203125 57.5153125 -24.58203125 58.1953125 C-26.05297852 59.64941406 -26.05297852 59.64941406 -28.0859375 61.3359375 C-38.93807764 70.57159824 -48.88246644 80.91647973 -57.58203125 92.1953125 C-58.68097696 93.57917005 -59.78135931 94.96188739 -60.8828125 96.34375 C-72.66045326 111.19298411 -82.74573083 126.42751802 -91.58203125 143.1953125 C-92.05930664 144.09926758 -92.53658203 145.00322266 -93.02832031 145.93457031 C-129.59309554 215.75304339 -142.36207712 294.95246591 -118.59765625 371.16015625 C-117.70232746 374.07161594 -117.70232746 374.07161594 -116.58203125 376.1953125 C-115.93259539 385.12505558 -115.93835442 391.84314295 -121.83203125 398.8828125 C-128.48634255 404.47848336 -132.68217579 405.87914793 -141.421875 405.578125 C-147.31036268 404.86481005 -150.86647835 402.74747941 -155.20703125 398.8203125 C-175.56836238 370.99315996 -176.81431136 324.32325024 -176.76953125 291.3203125 C-176.76826233 290.36078674 -176.76699341 289.40126099 -176.76568604 288.41265869 C-176.55367352 204.36283807 -144.71990459 119.71903184 -87.06640625 57.890625 C-85.0905975 55.7470589 -83.17444543 53.5765718 -81.26953125 51.37109375 C-77.60980859 47.17532124 -73.77053563 43.19152143 -69.83203125 39.2578125 C-69.13102295 38.55760986 -68.43001465 37.85740723 -67.70776367 37.13598633 C-63.08928871 32.57151623 -58.38574252 28.33568452 -53.2734375 24.328125 C-51.3143346 22.77562836 -49.42444232 21.20766293 -47.546875 19.5625 C-41.79444407 14.53033514 -35.94093697 9.88378936 -29.58203125 5.6328125 C-28.9590918 5.21523682 -28.33615234 4.79766113 -27.69433594 4.36743164 C-19.27927454 -1.13112381 -9.82056848 -3.06057051 0 0 Z " fill="#597CFE" transform="translate(426.58203125,260.8046875)"/>
<path d="M0 0 C4.77584961 3.61470224 7.73851622 7.79798436 9.12890625 13.64453125 C10.14234511 21.27199215 9.29922714 27.29854262 4.609375 33.5 C1.0020971 37.63701801 -2.84084046 41.36208215 -7 44.9375 C-36.7355477 70.7631833 -55.72535676 113.47257841 -64.5 151 C-64.67821289 151.71220703 -64.85642578 152.42441406 -65.04003906 153.15820312 C-67.61864776 163.86204106 -67.68650507 174.68879942 -67.68530273 185.64208984 C-67.68748962 187.86445277 -67.70571831 190.08631799 -67.72460938 192.30859375 C-67.758655 201.07494521 -67.04772902 209.34900936 -65.5 218 C-64.22894281 227.17887776 -64.43684461 233.60884651 -69.0625 241.75 C-73.82989586 246.1506731 -79.54771303 249.26061867 -86.125 249.5 C-93.44099525 248.99766934 -99.01731528 246.57799422 -103.96875 241.09765625 C-118.41079592 221.31352702 -114.26334637 181.95360829 -110.875 158.875 C-102.54466747 107.69010927 -79.48127217 60.57240126 -44.61328125 22.33203125 C-42.72623463 20.24965264 -40.88941767 18.13496936 -39.0625 16 C-29.07679098 4.62738695 -16.54877674 -9.24600215 0 0 Z " fill="#597CFE" transform="translate(457.5,360)"/>
<path d="M0 0 C0.33 0 0.66 0 1 0 C1.08858959 3.60400627 1.14091522 7.20772545 1.1875 10.8125 C1.21263672 11.81732422 1.23777344 12.82214844 1.26367188 13.85742188 C1.33284884 21.02876725 0.23677823 27.19047709 -2 34 C-2.66 34 -3.32 34 -4 34 C-4 32.68 -4 31.36 -4 30 C-3.34 30 -2.68 30 -2 30 C-1.34 20.1 -0.68 10.2 0 0 Z " fill="#4168FE" transform="translate(892,433)"/>
<path d="M0 0 C0.66 0 1.32 0 2 0 C2.433125 0.474375 2.86625 0.94875 3.3125 1.4375 C5.44693733 3.41383086 7.16307947 3.61663236 10 4 C9.443125 4.86625 9.443125 4.86625 8.875 5.75 C7.70833333 8 7.70833333 8 8.875 10.25 C9.24625 10.8275 9.6175 11.405 10 12 C6.40459445 8.50732032 3.12221448 4.92506963 0 1 C0 0.67 0 0.34 0 0 Z " fill="#496DFE" transform="translate(550,359)"/>
<path d="M0 0 C0.66 0.33 1.32 0.66 2 1 C1.01 1.66 0.02 2.32 -1 3 C-1 3.99 -1 4.98 -1 6 C-2.11375 6.12375 -3.2275 6.2475 -4.375 6.375 C-8.03103677 6.6465813 -8.03103677 6.6465813 -10 9 C-10.99 8.67 -11.98 8.34 -13 8 C-11.58531689 7.03874097 -10.1681636 6.08111675 -8.75 5.125 C-7.96109375 4.59132812 -7.1721875 4.05765625 -6.359375 3.5078125 C-4.26684277 2.17053197 -2.30109848 0.93420665 0 0 Z " fill="#436BFE" transform="translate(382,154)"/>
<path d="M0 0 C0.33 0.66 0.66 1.32 1 2 C1.99 2 2.98 2 4 2 C4 2.99 4 3.98 4 5 C3.34 5 2.68 5 2 5 C2 5.66 2 6.32 2 7 C0.35 7 -1.3 7 -3 7 C-1.125 1.125 -1.125 1.125 0 0 Z " fill="#4E72FE" transform="translate(212,323)"/>
<path d="M0 0 C0 0.99 0 1.98 0 3 C-2.8125 5.25 -2.8125 5.25 -6 7 C-6.99 6.67 -7.98 6.34 -9 6 C-8.34 5.67 -7.68 5.34 -7 5 C-7 4.01 -7 3.02 -7 2 C-4.69 1.34 -2.38 0.68 0 0 Z " fill="#4A6FFE" transform="translate(222,720)"/>
<path d="M0 0 C0.66 0 1.32 0 2 0 C2.33 0.99 2.66 1.98 3 3 C4.65 3.33 6.3 3.66 8 4 C8.33 5.32 8.66 6.64 9 8 C4.89041233 6.54955729 1.56741255 4.48889248 -2 2 C-1.34 1.34 -0.68 0.68 0 0 Z " fill="#4870FE" transform="translate(567,501)"/>
<path d="M0 0 C0.66 0.33 1.32 0.66 2 1 C-1.0657052 5.65987191 -3.58657319 6.85485202 -9 8 C-6.14723863 5.06799526 -3.34920216 2.35684596 0 0 Z " fill="#446CFD" transform="translate(399,265)"/>
<path d="M0 0 C0 4.8 0 4.8 -1 7 C-3.24807594 8.58338041 -5.53704027 9.74612959 -8 11 C-6.63629701 8.00779732 -5.05091917 5.70973471 -2.875 3.25 C-2.33617187 2.63640625 -1.79734375 2.0228125 -1.2421875 1.390625 C-0.62730469 0.70226562 -0.62730469 0.70226562 0 0 Z " fill="#446CFD" transform="translate(257,259)"/>
<path d="M0 0 C4.67105792 1.55701931 8.08705685 4.08447373 12 7 C9 7 9 7 6.5625 5.5 C3.91953092 3.66321387 3.91953092 3.66321387 0 4 C0 2.68 0 1.36 0 0 Z " fill="#446AFE" transform="translate(625,484)"/>
<path d="M0 0 C0.99 1.485 0.99 1.485 2 3 C2.99 3.33 3.98 3.66 5 4 C5.33 6.31 5.66 8.62 6 11 C1.9957657 7.50912907 0.37328935 5.35048061 0 0 Z " fill="#466BFD" transform="translate(538,477)"/>
<path d="M0 0 C1.65 0 3.3 0 5 0 C5.66 2.64 6.32 5.28 7 8 C3.75700849 5.61042731 1.49097658 3.7952131 0 0 Z " fill="#4A6FFE" transform="translate(578,393)"/>
<path d="M0 0 C0 3.99904969 -1.72586967 5.80200422 -4 9 C-4.88492145 6.52221994 -5.11637742 5.33943414 -4.25 2.8125 C-3 1 -3 1 0 0 Z " fill="#486FFE" transform="translate(350,375)"/>
<path d="M0 0 C2.97 0.495 2.97 0.495 6 1 C6 3.31 6 5.62 6 8 C1.125 3.375 1.125 3.375 0 0 Z " fill="#4B6FFD" transform="translate(714,255)"/>
<path d="M0 0 C1.23086034 3.69258103 0.66728638 4.58206293 -1 8 C-1.95824253 9.36365283 -2.94721175 10.70794169 -4 12 C-3.71640113 10.5608866 -3.42278601 9.12374482 -3.125 7.6875 C-2.96257812 6.88699219 -2.80015625 6.08648437 -2.6328125 5.26171875 C-2 3 -2 3 0 0 Z " fill="#456DFE" transform="translate(363,463)"/>
<path d="M0 0 C0 3 0 3 -1.53125 4.60546875 C-2.1809375 5.12753906 -2.830625 5.64960938 -3.5 6.1875 C-4.1496875 6.71730469 -4.799375 7.24710937 -5.46875 7.79296875 C-5.9740625 8.19128906 -6.479375 8.58960938 -7 9 C-7 7.33333333 -7 5.66666667 -7 4 C-6.401875 3.896875 -5.80375 3.79375 -5.1875 3.6875 C-2.71756736 2.91123545 -1.67748765 1.92911079 0 0 Z " fill="#3F69FE" transform="translate(304,272)"/>
<path d="M0 0 C0.33 0.66 0.66 1.32 1 2 C0.00390625 3.9453125 0.00390625 3.9453125 -1.4375 6.125 C-1.91058594 6.84945313 -2.38367188 7.57390625 -2.87109375 8.3203125 C-3.24363281 8.87460937 -3.61617188 9.42890625 -4 10 C-6 7 -6 7 -6 5 C-5.01 5 -4.02 5 -3 5 C-1.28288757 2.55503957 -1.28288757 2.55503957 0 0 Z " fill="#426DFE" transform="translate(418,444)"/>
<path d="M0 0 C1.65 0 3.3 0 5 0 C3.55746343 3.36591866 1.66735273 5.51047079 -1 8 C-0.67 5.36 -0.34 2.72 0 0 Z " fill="#486EFE" transform="translate(427,425)"/>
<path d="M0 0 C0.66 0 1.32 0 2 0 C4 6.625 4 6.625 4 10 C0.38860104 6.12435233 0.38860104 6.12435233 -1 4 C-0.8125 1.625 -0.8125 1.625 0 0 Z " fill="#476EFE" transform="translate(708,339)"/>
<path d="M0 0 C0 3 0 3 -1.53125 4.60546875 C-2.1809375 5.12753906 -2.830625 5.64960938 -3.5 6.1875 C-4.1496875 6.71730469 -4.799375 7.24710937 -5.46875 7.79296875 C-5.9740625 8.19128906 -6.479375 8.58960938 -7 9 C-6.75 6.625 -6.75 6.625 -6 4 C-4.0625 2.8125 -4.0625 2.8125 -2 2 C-1.34 1.34 -0.68 0.68 0 0 Z " fill="#406AFE" transform="translate(385,332)"/>
<path d="M0 0 C0.99 0.66 1.98 1.32 3 2 C1.35 3.32 -0.3 4.64 -2 6 C-2.33 4.35 -2.66 2.7 -3 1 C-2.01 0.67 -1.02 0.34 0 0 Z " fill="#496FFE" transform="translate(835,528)"/>
<path d="M0 0 C0.61875 0.66 1.2375 1.32 1.875 2 C3.75637427 4.2284549 3.75637427 4.2284549 6 4 C6 5.65 6 7.3 6 9 C1.2 5.67692308 1.2 5.67692308 0.1875 2.25 C0.125625 1.5075 0.06375 0.765 0 0 Z " fill="#456DFE" transform="translate(519,320)"/>
<path d="M0 0 C0.33 0.66 0.66 1.32 1 2 C0.34 2 -0.32 2 -1 2 C-1.33 2.99 -1.66 3.98 -2 5 C-5.5625 6.1875 -5.5625 6.1875 -9 7 C-6.24479785 4.04070881 -3.53372712 1.96318174 0 0 Z " fill="#4369FE" transform="translate(362,166)"/>
<path d="M0 0 C0.99 0 1.98 0 3 0 C3 0.99 3 1.98 3 3 C0.5 5.1875 0.5 5.1875 -2 7 C-2.66 6.67 -3.32 6.34 -4 6 C-3.525625 5.566875 -3.05125 5.13375 -2.5625 4.6875 C-0.76313043 2.97690387 -0.76313043 2.97690387 0 0 Z " fill="#4971FD" transform="translate(346,229)"/>
</svg>
